# xmcd
# 
# Track frame offsets:
#     150
#     20590
#     55621
#     79624
#     110293
#     126119
#     154749
#     181681
#     198801
#     223961
# 
# Disc length: 3375
# 
# Revision: 4
# Processed by: cddbd v1.5.2PL0 Copyright (c) Steve Scherf et al.
# Submitted via: fre:ac v1.0.17
# 
DISCID=7a0d2d0a
DTITLE=Mordechai ben David - Ma'aminim B'nei Ma'aminim
DYEAR=2001
DGENRE=Jewish
TTITLE0=Maaminim
TTITLE1=Torah
TTITLE2=Lefonov
TTITLE3=Midas
TTITLE4=Kavey
TTITLE5=Shir Chodesh
TTITLE6=Chasof
TTITLE7=V'Yishoma
TTITLE8=Mi Hoish
TTITLE9=V'Chusoh
EXTD=
EXTT0=
EXTT1=
EXTT2=
EXTT3=
EXTT4=
EXTT5=
EXTT6=
EXTT7=
EXTT8=
EXTT9=
PLAYORDER=
